<svg
  xmlns="http://www.w3.org/2000/svg"
  width="64"
  height="64"
  viewBox="0 0 64 64"
  fill="none"
>
  <rect width="64" height="64" rx="16" fill="url(#bg)" />
  <path
    d="M32 9.5c-7.2 8.4-14.4 17-14.4 26.1 0 9.7 6.5 16.5 14.4 16.5s14.4-6.8 14.4-16.5C46.4 26.5 39.2 17.9 32 9.5Z"
    fill="url(#drop)"
  />
  <path
    d="M24.2 22.2c1.9-3.4 4.7-6.8 7.8-10.4 6.8 7.9 13 15.7 13 24.1 0 2.9-.6 5.4-1.8 7.6"
    stroke="#E0F7FA"
    stroke-width="2.4"
    stroke-linecap="round"
    opacity=".72"
  />
  <path
    d="M16 41.1c3.3-2.1 6.7-2.1 10.1 0s6.8 2.1 10.2 0 6.7-2.1 10.1 0"
    stroke="#063B4B"
    stroke-width="3.6"
    stroke-linecap="round"
  />
  <path
    d="M18.7 47.8c2.6-1.6 5.2-1.6 7.9 0 2.6 1.6 5.2 1.6 7.8 0 2.7-1.6 5.3-1.6 7.9 0"
    stroke="#E0F7FA"
    stroke-width="3"
    stroke-linecap="round"
    opacity=".92"
  />
  <path
    d="M19.5 35.2 27.3 28l5.2 5 5.2-8.2 8.8 10.4"
    stroke="#0F766E"
    stroke-width="2.6"
    stroke-linecap="round"
    stroke-linejoin="round"
    opacity=".95"
  />
  <circle cx="25" cy="26" r="2.2" fill="#FACC15" />
  <defs>
    <linearGradient
      id="bg"
      x1="10"
      y1="7"
      x2="54"
      y2="58"
      gradientUnits="userSpaceOnUse"
    >
      <stop stop-color="#E0F7FA" />
      <stop offset=".42" stop-color="#7DD3FC" />
      <stop offset="1" stop-color="#0F766E" />
    </linearGradient>
    <linearGradient
      id="drop"
      x1="21.4"
      y1="13.2"
      x2="44.5"
      y2="51.7"
      gradientUnits="userSpaceOnUse"
    >
      <stop stop-color="#F8FEFF" />
      <stop offset=".36" stop-color="#38BDF8" />
      <stop offset="1" stop-color="#0369A1" />
    </linearGradient>
  </defs>
</svg>
